<mxfile host="app.diagrams.net" modified="2024-02-07T05:04:16.606Z" agent="Mozilla/5.0 (Windows NT 10.0; Win64; x64; rv:122.0) Gecko/20100101 Firefox/122.0" etag="lfnOrC8Ibuda5Lc0ilqz" version="23.1.1" type="github">
  <diagram id="R2lEEEUBdFMjLlhIrx00" name="Page-1">
    <mxGraphModel dx="1434" dy="746" grid="1" gridSize="10" guides="1" tooltips="1" connect="1" arrows="1" fold="1" page="1" pageScale="1" pageWidth="850" pageHeight="1100" math="0" shadow="0" extFonts="Permanent Marker^https://fonts.googleapis.com/css?family=Permanent+Marker">
      <root>
        <mxCell id="0" />
        <mxCell id="1" parent="0" />
        <mxCell id="jhPOHVsBVJR2UNJ6piLA-3" value="" style="edgeStyle=orthogonalEdgeStyle;rounded=0;orthogonalLoop=1;jettySize=auto;html=1;" edge="1" parent="1" source="jhPOHVsBVJR2UNJ6piLA-1" target="jhPOHVsBVJR2UNJ6piLA-2">
          <mxGeometry relative="1" as="geometry" />
        </mxCell>
        <mxCell id="jhPOHVsBVJR2UNJ6piLA-38" value="" style="edgeStyle=orthogonalEdgeStyle;rounded=0;orthogonalLoop=1;jettySize=auto;html=1;" edge="1" parent="1" source="jhPOHVsBVJR2UNJ6piLA-1" target="jhPOHVsBVJR2UNJ6piLA-33">
          <mxGeometry relative="1" as="geometry" />
        </mxCell>
        <mxCell id="jhPOHVsBVJR2UNJ6piLA-1" value="ADMIN" style="rounded=0;whiteSpace=wrap;html=1;" vertex="1" parent="1">
          <mxGeometry x="360" y="210" width="120" height="60" as="geometry" />
        </mxCell>
        <mxCell id="jhPOHVsBVJR2UNJ6piLA-5" value="" style="edgeStyle=orthogonalEdgeStyle;rounded=0;orthogonalLoop=1;jettySize=auto;html=1;" edge="1" parent="1" source="jhPOHVsBVJR2UNJ6piLA-2" target="jhPOHVsBVJR2UNJ6piLA-4">
          <mxGeometry relative="1" as="geometry" />
        </mxCell>
        <mxCell id="jhPOHVsBVJR2UNJ6piLA-2" value="Manage" style="rhombus;whiteSpace=wrap;html=1;" vertex="1" parent="1">
          <mxGeometry x="380" y="320" width="80" height="80" as="geometry" />
        </mxCell>
        <mxCell id="jhPOHVsBVJR2UNJ6piLA-13" value="" style="edgeStyle=orthogonalEdgeStyle;rounded=0;orthogonalLoop=1;jettySize=auto;html=1;" edge="1" parent="1" source="jhPOHVsBVJR2UNJ6piLA-4" target="jhPOHVsBVJR2UNJ6piLA-12">
          <mxGeometry relative="1" as="geometry" />
        </mxCell>
        <mxCell id="jhPOHVsBVJR2UNJ6piLA-15" value="" style="edgeStyle=orthogonalEdgeStyle;rounded=0;orthogonalLoop=1;jettySize=auto;html=1;" edge="1" parent="1" source="jhPOHVsBVJR2UNJ6piLA-4" target="jhPOHVsBVJR2UNJ6piLA-14">
          <mxGeometry relative="1" as="geometry" />
        </mxCell>
        <mxCell id="jhPOHVsBVJR2UNJ6piLA-4" value="Quiz" style="rounded=0;whiteSpace=wrap;html=1;" vertex="1" parent="1">
          <mxGeometry x="550" y="330" width="120" height="60" as="geometry" />
        </mxCell>
        <mxCell id="jhPOHVsBVJR2UNJ6piLA-7" value="" style="edgeStyle=orthogonalEdgeStyle;rounded=0;orthogonalLoop=1;jettySize=auto;html=1;" edge="1" parent="1" source="jhPOHVsBVJR2UNJ6piLA-6" target="jhPOHVsBVJR2UNJ6piLA-4">
          <mxGeometry relative="1" as="geometry" />
        </mxCell>
        <mxCell id="jhPOHVsBVJR2UNJ6piLA-6" value="Takes" style="rhombus;whiteSpace=wrap;html=1;" vertex="1" parent="1">
          <mxGeometry x="570" y="170" width="80" height="80" as="geometry" />
        </mxCell>
        <mxCell id="jhPOHVsBVJR2UNJ6piLA-10" value="" style="edgeStyle=orthogonalEdgeStyle;rounded=0;orthogonalLoop=1;jettySize=auto;html=1;" edge="1" parent="1" source="jhPOHVsBVJR2UNJ6piLA-8" target="jhPOHVsBVJR2UNJ6piLA-9">
          <mxGeometry relative="1" as="geometry" />
        </mxCell>
        <mxCell id="jhPOHVsBVJR2UNJ6piLA-11" value="" style="edgeStyle=orthogonalEdgeStyle;rounded=0;orthogonalLoop=1;jettySize=auto;html=1;" edge="1" parent="1" source="jhPOHVsBVJR2UNJ6piLA-8" target="jhPOHVsBVJR2UNJ6piLA-6">
          <mxGeometry relative="1" as="geometry" />
        </mxCell>
        <mxCell id="jhPOHVsBVJR2UNJ6piLA-30" style="edgeStyle=orthogonalEdgeStyle;rounded=0;orthogonalLoop=1;jettySize=auto;html=1;exitX=0;exitY=0.5;exitDx=0;exitDy=0;" edge="1" parent="1" source="jhPOHVsBVJR2UNJ6piLA-8" target="jhPOHVsBVJR2UNJ6piLA-29">
          <mxGeometry relative="1" as="geometry" />
        </mxCell>
        <mxCell id="jhPOHVsBVJR2UNJ6piLA-8" value="Student" style="rounded=0;whiteSpace=wrap;html=1;" vertex="1" parent="1">
          <mxGeometry x="550" y="80" width="120" height="60" as="geometry" />
        </mxCell>
        <mxCell id="jhPOHVsBVJR2UNJ6piLA-9" value="Name" style="ellipse;whiteSpace=wrap;html=1;" vertex="1" parent="1">
          <mxGeometry x="690" y="20" width="90" height="50" as="geometry" />
        </mxCell>
        <mxCell id="jhPOHVsBVJR2UNJ6piLA-12" value="Title" style="ellipse;whiteSpace=wrap;html=1;" vertex="1" parent="1">
          <mxGeometry x="700" y="290" width="90" height="50" as="geometry" />
        </mxCell>
        <mxCell id="jhPOHVsBVJR2UNJ6piLA-17" value="" style="edgeStyle=orthogonalEdgeStyle;rounded=0;orthogonalLoop=1;jettySize=auto;html=1;" edge="1" parent="1" source="jhPOHVsBVJR2UNJ6piLA-14" target="jhPOHVsBVJR2UNJ6piLA-16">
          <mxGeometry relative="1" as="geometry" />
        </mxCell>
        <mxCell id="jhPOHVsBVJR2UNJ6piLA-14" value="Contains" style="rhombus;whiteSpace=wrap;html=1;" vertex="1" parent="1">
          <mxGeometry x="570" y="430" width="80" height="80" as="geometry" />
        </mxCell>
        <mxCell id="jhPOHVsBVJR2UNJ6piLA-19" value="" style="edgeStyle=orthogonalEdgeStyle;rounded=0;orthogonalLoop=1;jettySize=auto;html=1;" edge="1" parent="1" source="jhPOHVsBVJR2UNJ6piLA-16" target="jhPOHVsBVJR2UNJ6piLA-18">
          <mxGeometry relative="1" as="geometry" />
        </mxCell>
        <mxCell id="jhPOHVsBVJR2UNJ6piLA-25" style="edgeStyle=orthogonalEdgeStyle;rounded=0;orthogonalLoop=1;jettySize=auto;html=1;exitX=1;exitY=1;exitDx=0;exitDy=0;entryX=0;entryY=0.5;entryDx=0;entryDy=0;" edge="1" parent="1" source="jhPOHVsBVJR2UNJ6piLA-16" target="jhPOHVsBVJR2UNJ6piLA-22">
          <mxGeometry relative="1" as="geometry" />
        </mxCell>
        <mxCell id="jhPOHVsBVJR2UNJ6piLA-26" style="edgeStyle=orthogonalEdgeStyle;rounded=0;orthogonalLoop=1;jettySize=auto;html=1;exitX=0.75;exitY=1;exitDx=0;exitDy=0;entryX=0;entryY=0.5;entryDx=0;entryDy=0;" edge="1" parent="1" source="jhPOHVsBVJR2UNJ6piLA-16" target="jhPOHVsBVJR2UNJ6piLA-23">
          <mxGeometry relative="1" as="geometry" />
        </mxCell>
        <mxCell id="jhPOHVsBVJR2UNJ6piLA-27" style="edgeStyle=orthogonalEdgeStyle;rounded=0;orthogonalLoop=1;jettySize=auto;html=1;exitX=0.5;exitY=1;exitDx=0;exitDy=0;entryX=0;entryY=0.5;entryDx=0;entryDy=0;" edge="1" parent="1" source="jhPOHVsBVJR2UNJ6piLA-16" target="jhPOHVsBVJR2UNJ6piLA-24">
          <mxGeometry relative="1" as="geometry" />
        </mxCell>
        <mxCell id="jhPOHVsBVJR2UNJ6piLA-16" value="Quiz" style="rounded=0;whiteSpace=wrap;html=1;" vertex="1" parent="1">
          <mxGeometry x="550" y="550" width="120" height="60" as="geometry" />
        </mxCell>
        <mxCell id="jhPOHVsBVJR2UNJ6piLA-18" value="Question ID" style="ellipse;whiteSpace=wrap;html=1;" vertex="1" parent="1">
          <mxGeometry x="730" y="510" width="90" height="50" as="geometry" />
        </mxCell>
        <mxCell id="jhPOHVsBVJR2UNJ6piLA-20" value="Question Description" style="ellipse;whiteSpace=wrap;html=1;" vertex="1" parent="1">
          <mxGeometry x="730" y="590" width="90" height="50" as="geometry" />
        </mxCell>
        <mxCell id="jhPOHVsBVJR2UNJ6piLA-21" style="edgeStyle=orthogonalEdgeStyle;rounded=0;orthogonalLoop=1;jettySize=auto;html=1;exitX=1;exitY=0.75;exitDx=0;exitDy=0;entryX=0.056;entryY=0.66;entryDx=0;entryDy=0;entryPerimeter=0;" edge="1" parent="1" source="jhPOHVsBVJR2UNJ6piLA-16" target="jhPOHVsBVJR2UNJ6piLA-20">
          <mxGeometry relative="1" as="geometry" />
        </mxCell>
        <mxCell id="jhPOHVsBVJR2UNJ6piLA-22" value="Choice 1" style="ellipse;whiteSpace=wrap;html=1;" vertex="1" parent="1">
          <mxGeometry x="720" y="650" width="90" height="50" as="geometry" />
        </mxCell>
        <mxCell id="jhPOHVsBVJR2UNJ6piLA-23" value="Choice 2" style="ellipse;whiteSpace=wrap;html=1;" vertex="1" parent="1">
          <mxGeometry x="720" y="710" width="90" height="50" as="geometry" />
        </mxCell>
        <mxCell id="jhPOHVsBVJR2UNJ6piLA-24" value="Choice 3" style="ellipse;whiteSpace=wrap;html=1;" vertex="1" parent="1">
          <mxGeometry x="720" y="780" width="90" height="50" as="geometry" />
        </mxCell>
        <mxCell id="jhPOHVsBVJR2UNJ6piLA-32" style="edgeStyle=orthogonalEdgeStyle;rounded=0;orthogonalLoop=1;jettySize=auto;html=1;exitX=0.5;exitY=1;exitDx=0;exitDy=0;" edge="1" parent="1" source="jhPOHVsBVJR2UNJ6piLA-29" target="jhPOHVsBVJR2UNJ6piLA-31">
          <mxGeometry relative="1" as="geometry" />
        </mxCell>
        <mxCell id="jhPOHVsBVJR2UNJ6piLA-29" value="Gets" style="rhombus;whiteSpace=wrap;html=1;" vertex="1" parent="1">
          <mxGeometry x="60" y="70" width="80" height="80" as="geometry" />
        </mxCell>
        <mxCell id="jhPOHVsBVJR2UNJ6piLA-42" style="edgeStyle=orthogonalEdgeStyle;rounded=0;orthogonalLoop=1;jettySize=auto;html=1;exitX=0.25;exitY=1;exitDx=0;exitDy=0;" edge="1" parent="1" source="jhPOHVsBVJR2UNJ6piLA-31" target="jhPOHVsBVJR2UNJ6piLA-41">
          <mxGeometry relative="1" as="geometry">
            <Array as="points">
              <mxPoint x="70" y="560" />
              <mxPoint x="70" y="560" />
            </Array>
          </mxGeometry>
        </mxCell>
        <mxCell id="jhPOHVsBVJR2UNJ6piLA-44" style="edgeStyle=orthogonalEdgeStyle;rounded=0;orthogonalLoop=1;jettySize=auto;html=1;exitX=0.75;exitY=1;exitDx=0;exitDy=0;" edge="1" parent="1" source="jhPOHVsBVJR2UNJ6piLA-31" target="jhPOHVsBVJR2UNJ6piLA-43">
          <mxGeometry relative="1" as="geometry">
            <Array as="points">
              <mxPoint x="130" y="500" />
              <mxPoint x="130" y="500" />
            </Array>
          </mxGeometry>
        </mxCell>
        <mxCell id="jhPOHVsBVJR2UNJ6piLA-31" value="Result" style="rounded=0;whiteSpace=wrap;html=1;" vertex="1" parent="1">
          <mxGeometry x="40" y="370" width="120" height="60" as="geometry" />
        </mxCell>
        <mxCell id="jhPOHVsBVJR2UNJ6piLA-36" style="edgeStyle=orthogonalEdgeStyle;rounded=0;orthogonalLoop=1;jettySize=auto;html=1;exitX=0.5;exitY=1;exitDx=0;exitDy=0;entryX=1;entryY=0.5;entryDx=0;entryDy=0;" edge="1" parent="1" source="jhPOHVsBVJR2UNJ6piLA-33" target="jhPOHVsBVJR2UNJ6piLA-31">
          <mxGeometry relative="1" as="geometry" />
        </mxCell>
        <mxCell id="jhPOHVsBVJR2UNJ6piLA-33" value="Generates" style="rhombus;whiteSpace=wrap;html=1;" vertex="1" parent="1">
          <mxGeometry x="190" y="200" width="80" height="80" as="geometry" />
        </mxCell>
        <mxCell id="jhPOHVsBVJR2UNJ6piLA-41" value="Score" style="ellipse;whiteSpace=wrap;html=1;" vertex="1" parent="1">
          <mxGeometry x="20" y="600" width="90" height="50" as="geometry" />
        </mxCell>
        <mxCell id="jhPOHVsBVJR2UNJ6piLA-43" value="Grade" style="ellipse;whiteSpace=wrap;html=1;" vertex="1" parent="1">
          <mxGeometry x="90" y="525" width="90" height="50" as="geometry" />
        </mxCell>
      </root>
    </mxGraphModel>
  </diagram>
</mxfile>
